<mxfile host="app.diagrams.net" modified="2022-02-28T06:56:49.555Z" agent="5.0 (Macintosh; Intel Mac OS X 10_15_7) AppleWebKit/537.36 (KHTML, like Gecko) Chrome/92.0.4515.159 Safari/537.36" etag="VDgY9zKGP4ynFrbEGZtA" version="16.6.1" type="github">
  <diagram id="we0jUryOAztgWfHVz9gr" name="第 1 页">
    <mxGraphModel dx="3793" dy="1838" grid="1" gridSize="10" guides="1" tooltips="1" connect="1" arrows="1" fold="1" page="0" pageScale="1" pageWidth="827" pageHeight="1169" math="0" shadow="0">
      <root>
        <mxCell id="0" />
        <mxCell id="1" parent="0" />
        <mxCell id="94LR02DZ429kzzAhb7ix-1" value="SnapCalculator" style="swimlane;fontStyle=1;align=center;verticalAlign=top;childLayout=stackLayout;horizontal=1;startSize=26;horizontalStack=0;resizeParent=1;resizeParentMax=0;resizeLast=0;collapsible=1;marginBottom=0;rounded=1;sketch=1;fontFamily=Comic Sans MS;fontColor=#46495D;strokeColor=#788AA3;fillColor=#B2C9AB;" vertex="1" parent="1">
          <mxGeometry x="-840" y="-22" width="160" height="190" as="geometry" />
        </mxCell>
        <mxCell id="94LR02DZ429kzzAhb7ix-2" value="- options" style="text;strokeColor=none;fillColor=none;align=left;verticalAlign=top;spacingLeft=4;spacingRight=4;overflow=hidden;rotatable=0;points=[[0,0.5],[1,0.5]];portConstraint=eastwest;rounded=1;sketch=1;fontFamily=Comic Sans MS;fontColor=#46495D;" vertex="1" parent="94LR02DZ429kzzAhb7ix-1">
          <mxGeometry y="26" width="160" height="26" as="geometry" />
        </mxCell>
        <mxCell id="94LR02DZ429kzzAhb7ix-19" value="- snapRefers" style="text;strokeColor=none;fillColor=none;align=left;verticalAlign=top;spacingLeft=4;spacingRight=4;overflow=hidden;rotatable=0;points=[[0,0.5],[1,0.5]];portConstraint=eastwest;rounded=1;sketch=1;fontFamily=Comic Sans MS;fontColor=#46495D;" vertex="1" parent="94LR02DZ429kzzAhb7ix-1">
          <mxGeometry y="52" width="160" height="26" as="geometry" />
        </mxCell>
        <mxCell id="94LR02DZ429kzzAhb7ix-3" value="" style="line;strokeWidth=1;fillColor=none;align=left;verticalAlign=middle;spacingTop=-1;spacingLeft=3;spacingRight=3;rotatable=0;labelPosition=right;points=[];portConstraint=eastwest;rounded=1;sketch=1;fontFamily=Comic Sans MS;fontColor=#46495D;" vertex="1" parent="94LR02DZ429kzzAhb7ix-1">
          <mxGeometry y="78" width="160" height="8" as="geometry" />
        </mxCell>
        <mxCell id="94LR02DZ429kzzAhb7ix-18" value="+ addRefer(...snapRefer)" style="text;strokeColor=none;fillColor=none;align=left;verticalAlign=top;spacingLeft=4;spacingRight=4;overflow=hidden;rotatable=0;points=[[0,0.5],[1,0.5]];portConstraint=eastwest;rounded=1;sketch=1;fontFamily=Comic Sans MS;fontColor=#46495D;" vertex="1" parent="94LR02DZ429kzzAhb7ix-1">
          <mxGeometry y="86" width="160" height="26" as="geometry" />
        </mxCell>
        <mxCell id="94LR02DZ429kzzAhb7ix-20" value="+ setRefers(snapRefers)" style="text;strokeColor=none;fillColor=none;align=left;verticalAlign=top;spacingLeft=4;spacingRight=4;overflow=hidden;rotatable=0;points=[[0,0.5],[1,0.5]];portConstraint=eastwest;rounded=1;sketch=1;fontFamily=Comic Sans MS;fontColor=#46495D;" vertex="1" parent="94LR02DZ429kzzAhb7ix-1">
          <mxGeometry y="112" width="160" height="26" as="geometry" />
        </mxCell>
        <mxCell id="94LR02DZ429kzzAhb7ix-4" value="+ snap()" style="text;strokeColor=none;fillColor=none;align=left;verticalAlign=top;spacingLeft=4;spacingRight=4;overflow=hidden;rotatable=0;points=[[0,0.5],[1,0.5]];portConstraint=eastwest;rounded=1;sketch=1;fontFamily=Comic Sans MS;fontColor=#46495D;" vertex="1" parent="94LR02DZ429kzzAhb7ix-1">
          <mxGeometry y="138" width="160" height="26" as="geometry" />
        </mxCell>
        <mxCell id="94LR02DZ429kzzAhb7ix-126" value="+ clear()" style="text;strokeColor=none;fillColor=none;align=left;verticalAlign=top;spacingLeft=4;spacingRight=4;overflow=hidden;rotatable=0;points=[[0,0.5],[1,0.5]];portConstraint=eastwest;rounded=1;sketch=1;fontFamily=Comic Sans MS;fontColor=#46495D;" vertex="1" parent="94LR02DZ429kzzAhb7ix-1">
          <mxGeometry y="164" width="160" height="26" as="geometry" />
        </mxCell>
        <mxCell id="94LR02DZ429kzzAhb7ix-5" value="SnapRenderer" style="swimlane;fontStyle=1;align=center;verticalAlign=top;childLayout=stackLayout;horizontal=1;startSize=26;horizontalStack=0;resizeParent=1;resizeParentMax=0;resizeLast=0;collapsible=1;marginBottom=0;rounded=1;sketch=1;fontFamily=Comic Sans MS;fontColor=#46495D;strokeColor=#788AA3;fillColor=#B2C9AB;" vertex="1" parent="1">
          <mxGeometry x="-440" y="22" width="160" height="138" as="geometry" />
        </mxCell>
        <mxCell id="94LR02DZ429kzzAhb7ix-6" value="+ field: type" style="text;strokeColor=none;fillColor=none;align=left;verticalAlign=top;spacingLeft=4;spacingRight=4;overflow=hidden;rotatable=0;points=[[0,0.5],[1,0.5]];portConstraint=eastwest;rounded=1;sketch=1;fontFamily=Comic Sans MS;fontColor=#46495D;" vertex="1" parent="94LR02DZ429kzzAhb7ix-5">
          <mxGeometry y="26" width="160" height="26" as="geometry" />
        </mxCell>
        <mxCell id="94LR02DZ429kzzAhb7ix-7" value="" style="line;strokeWidth=1;fillColor=none;align=left;verticalAlign=middle;spacingTop=-1;spacingLeft=3;spacingRight=3;rotatable=0;labelPosition=right;points=[];portConstraint=eastwest;rounded=1;sketch=1;fontFamily=Comic Sans MS;fontColor=#46495D;" vertex="1" parent="94LR02DZ429kzzAhb7ix-5">
          <mxGeometry y="52" width="160" height="8" as="geometry" />
        </mxCell>
        <mxCell id="94LR02DZ429kzzAhb7ix-127" value="+ render(snapList)" style="text;strokeColor=none;fillColor=none;align=left;verticalAlign=top;spacingLeft=4;spacingRight=4;overflow=hidden;rotatable=0;points=[[0,0.5],[1,0.5]];portConstraint=eastwest;rounded=1;sketch=1;fontFamily=Comic Sans MS;fontColor=#46495D;" vertex="1" parent="94LR02DZ429kzzAhb7ix-5">
          <mxGeometry y="60" width="160" height="26" as="geometry" />
        </mxCell>
        <mxCell id="94LR02DZ429kzzAhb7ix-8" value="+ clear()" style="text;strokeColor=none;fillColor=none;align=left;verticalAlign=top;spacingLeft=4;spacingRight=4;overflow=hidden;rotatable=0;points=[[0,0.5],[1,0.5]];portConstraint=eastwest;rounded=1;sketch=1;fontFamily=Comic Sans MS;fontColor=#46495D;" vertex="1" parent="94LR02DZ429kzzAhb7ix-5">
          <mxGeometry y="86" width="160" height="26" as="geometry" />
        </mxCell>
        <mxCell id="94LR02DZ429kzzAhb7ix-128" value="+ dispose()" style="text;strokeColor=none;fillColor=none;align=left;verticalAlign=top;spacingLeft=4;spacingRight=4;overflow=hidden;rotatable=0;points=[[0,0.5],[1,0.5]];portConstraint=eastwest;rounded=1;sketch=1;fontFamily=Comic Sans MS;fontColor=#46495D;" vertex="1" parent="94LR02DZ429kzzAhb7ix-5">
          <mxGeometry y="112" width="160" height="26" as="geometry" />
        </mxCell>
        <mxCell id="94LR02DZ429kzzAhb7ix-9" value="SnapRefer" style="swimlane;fontStyle=1;align=center;verticalAlign=top;childLayout=stackLayout;horizontal=1;startSize=26;horizontalStack=0;resizeParent=1;resizeParentMax=0;resizeLast=0;collapsible=1;marginBottom=0;rounded=1;sketch=1;fontFamily=Comic Sans MS;fontColor=#46495D;strokeColor=#788AA3;fillColor=#B2C9AB;" vertex="1" parent="1">
          <mxGeometry x="-850" y="284" width="160" height="138" as="geometry" />
        </mxCell>
        <mxCell id="94LR02DZ429kzzAhb7ix-10" value="+ id: string" style="text;strokeColor=none;fillColor=none;align=left;verticalAlign=top;spacingLeft=4;spacingRight=4;overflow=hidden;rotatable=0;points=[[0,0.5],[1,0.5]];portConstraint=eastwest;rounded=1;sketch=1;fontFamily=Comic Sans MS;fontColor=#46495D;" vertex="1" parent="94LR02DZ429kzzAhb7ix-9">
          <mxGeometry y="26" width="160" height="26" as="geometry" />
        </mxCell>
        <mxCell id="94LR02DZ429kzzAhb7ix-29" value="+ type: point | segment" style="text;strokeColor=none;fillColor=none;align=left;verticalAlign=top;spacingLeft=4;spacingRight=4;overflow=hidden;rotatable=0;points=[[0,0.5],[1,0.5]];portConstraint=eastwest;rounded=1;sketch=1;fontFamily=Comic Sans MS;fontColor=#46495D;" vertex="1" parent="94LR02DZ429kzzAhb7ix-9">
          <mxGeometry y="52" width="160" height="26" as="geometry" />
        </mxCell>
        <mxCell id="94LR02DZ429kzzAhb7ix-116" value="+ coords: number[][]" style="text;strokeColor=none;fillColor=none;align=left;verticalAlign=top;spacingLeft=4;spacingRight=4;overflow=hidden;rotatable=0;points=[[0,0.5],[1,0.5]];portConstraint=eastwest;rounded=1;sketch=1;fontFamily=Comic Sans MS;fontColor=#46495D;" vertex="1" parent="94LR02DZ429kzzAhb7ix-9">
          <mxGeometry y="78" width="160" height="26" as="geometry" />
        </mxCell>
        <mxCell id="94LR02DZ429kzzAhb7ix-11" value="" style="line;strokeWidth=1;fillColor=none;align=left;verticalAlign=middle;spacingTop=-1;spacingLeft=3;spacingRight=3;rotatable=0;labelPosition=right;points=[];portConstraint=eastwest;rounded=1;sketch=1;fontFamily=Comic Sans MS;fontColor=#46495D;" vertex="1" parent="94LR02DZ429kzzAhb7ix-9">
          <mxGeometry y="104" width="160" height="8" as="geometry" />
        </mxCell>
        <mxCell id="94LR02DZ429kzzAhb7ix-12" value="+ " style="text;strokeColor=none;fillColor=none;align=left;verticalAlign=top;spacingLeft=4;spacingRight=4;overflow=hidden;rotatable=0;points=[[0,0.5],[1,0.5]];portConstraint=eastwest;rounded=1;sketch=1;fontFamily=Comic Sans MS;fontColor=#46495D;" vertex="1" parent="94LR02DZ429kzzAhb7ix-9">
          <mxGeometry y="112" width="160" height="26" as="geometry" />
        </mxCell>
        <mxCell id="94LR02DZ429kzzAhb7ix-13" value="SnapResult" style="swimlane;fontStyle=1;align=center;verticalAlign=top;childLayout=stackLayout;horizontal=1;startSize=26;horizontalStack=0;resizeParent=1;resizeParentMax=0;resizeLast=0;collapsible=1;marginBottom=0;rounded=1;sketch=1;fontFamily=Comic Sans MS;fontColor=#46495D;strokeColor=#788AA3;fillColor=#B2C9AB;" vertex="1" parent="1">
          <mxGeometry x="-240" y="280" width="160" height="138" as="geometry" />
        </mxCell>
        <mxCell id="94LR02DZ429kzzAhb7ix-28" value="+ refs: string[]" style="text;strokeColor=none;fillColor=none;align=left;verticalAlign=top;spacingLeft=4;spacingRight=4;overflow=hidden;rotatable=0;points=[[0,0.5],[1,0.5]];portConstraint=eastwest;rounded=1;sketch=1;fontFamily=Comic Sans MS;fontColor=#46495D;" vertex="1" parent="94LR02DZ429kzzAhb7ix-13">
          <mxGeometry y="26" width="160" height="26" as="geometry" />
        </mxCell>
        <mxCell id="94LR02DZ429kzzAhb7ix-14" value="+ snapList: SnapItem[]" style="text;strokeColor=none;fillColor=none;align=left;verticalAlign=top;spacingLeft=4;spacingRight=4;overflow=hidden;rotatable=0;points=[[0,0.5],[1,0.5]];portConstraint=eastwest;rounded=1;sketch=1;fontFamily=Comic Sans MS;fontColor=#46495D;" vertex="1" parent="94LR02DZ429kzzAhb7ix-13">
          <mxGeometry y="52" width="160" height="26" as="geometry" />
        </mxCell>
        <mxCell id="94LR02DZ429kzzAhb7ix-121" value="+ vector: Vector3" style="text;strokeColor=none;fillColor=none;align=left;verticalAlign=top;spacingLeft=4;spacingRight=4;overflow=hidden;rotatable=0;points=[[0,0.5],[1,0.5]];portConstraint=eastwest;rounded=1;sketch=1;fontFamily=Comic Sans MS;fontColor=#46495D;" vertex="1" parent="94LR02DZ429kzzAhb7ix-13">
          <mxGeometry y="78" width="160" height="26" as="geometry" />
        </mxCell>
        <mxCell id="94LR02DZ429kzzAhb7ix-15" value="" style="line;strokeWidth=1;fillColor=none;align=left;verticalAlign=middle;spacingTop=-1;spacingLeft=3;spacingRight=3;rotatable=0;labelPosition=right;points=[];portConstraint=eastwest;rounded=1;sketch=1;fontFamily=Comic Sans MS;fontColor=#46495D;" vertex="1" parent="94LR02DZ429kzzAhb7ix-13">
          <mxGeometry y="104" width="160" height="8" as="geometry" />
        </mxCell>
        <mxCell id="94LR02DZ429kzzAhb7ix-16" value="+ " style="text;strokeColor=none;fillColor=none;align=left;verticalAlign=top;spacingLeft=4;spacingRight=4;overflow=hidden;rotatable=0;points=[[0,0.5],[1,0.5]];portConstraint=eastwest;rounded=1;sketch=1;fontFamily=Comic Sans MS;fontColor=#46495D;" vertex="1" parent="94LR02DZ429kzzAhb7ix-13">
          <mxGeometry y="112" width="160" height="26" as="geometry" />
        </mxCell>
        <mxCell id="94LR02DZ429kzzAhb7ix-21" value="SnapCalculatorOptions" style="swimlane;fontStyle=1;align=center;verticalAlign=top;childLayout=stackLayout;horizontal=1;startSize=26;horizontalStack=0;resizeParent=1;resizeParentMax=0;resizeLast=0;collapsible=1;marginBottom=0;rounded=1;sketch=1;fontFamily=Comic Sans MS;fontColor=#46495D;strokeColor=#788AA3;fillColor=#B2C9AB;" vertex="1" parent="1">
          <mxGeometry x="-650" y="90" width="160" height="78" as="geometry" />
        </mxCell>
        <mxCell id="94LR02DZ429kzzAhb7ix-22" value="+ disThreshold" style="text;strokeColor=none;fillColor=none;align=left;verticalAlign=top;spacingLeft=4;spacingRight=4;overflow=hidden;rotatable=0;points=[[0,0.5],[1,0.5]];portConstraint=eastwest;rounded=1;sketch=1;fontFamily=Comic Sans MS;fontColor=#46495D;" vertex="1" parent="94LR02DZ429kzzAhb7ix-21">
          <mxGeometry y="26" width="160" height="26" as="geometry" />
        </mxCell>
        <mxCell id="94LR02DZ429kzzAhb7ix-23" value="+ degThreshold" style="text;strokeColor=none;fillColor=none;align=left;verticalAlign=top;spacingLeft=4;spacingRight=4;overflow=hidden;rotatable=0;points=[[0,0.5],[1,0.5]];portConstraint=eastwest;rounded=1;sketch=1;fontFamily=Comic Sans MS;fontColor=#46495D;" vertex="1" parent="94LR02DZ429kzzAhb7ix-21">
          <mxGeometry y="52" width="160" height="26" as="geometry" />
        </mxCell>
        <mxCell id="94LR02DZ429kzzAhb7ix-24" value="ISnapValidator" style="swimlane;fontStyle=1;align=center;verticalAlign=top;childLayout=stackLayout;horizontal=1;startSize=26;horizontalStack=0;resizeParent=1;resizeParentMax=0;resizeLast=0;collapsible=1;marginBottom=0;rounded=1;sketch=1;fontFamily=Comic Sans MS;fontColor=#46495D;strokeColor=#788AA3;fillColor=#B2C9AB;" vertex="1" parent="1">
          <mxGeometry x="-849" y="180" width="160" height="52" as="geometry" />
        </mxCell>
        <mxCell id="94LR02DZ429kzzAhb7ix-26" value="+ validate(snapRefers)" style="text;strokeColor=none;fillColor=none;align=left;verticalAlign=top;spacingLeft=4;spacingRight=4;overflow=hidden;rotatable=0;points=[[0,0.5],[1,0.5]];portConstraint=eastwest;rounded=1;sketch=1;fontFamily=Comic Sans MS;fontColor=#46495D;" vertex="1" parent="94LR02DZ429kzzAhb7ix-24">
          <mxGeometry y="26" width="160" height="26" as="geometry" />
        </mxCell>
        <mxCell id="94LR02DZ429kzzAhb7ix-43" style="edgeStyle=orthogonalEdgeStyle;rounded=0;orthogonalLoop=1;jettySize=auto;html=1;exitX=0.5;exitY=1;exitDx=0;exitDy=0;exitPerimeter=0;entryX=0.5;entryY=0;entryDx=0;entryDy=0;entryPerimeter=0;" edge="1" parent="1" source="94LR02DZ429kzzAhb7ix-35" target="94LR02DZ429kzzAhb7ix-39">
          <mxGeometry relative="1" as="geometry" />
        </mxCell>
        <mxCell id="94LR02DZ429kzzAhb7ix-35" value="开始" style="strokeWidth=2;html=1;shape=mxgraph.flowchart.start_1;whiteSpace=wrap;rounded=1;sketch=1;fontFamily=Comic Sans MS;fontColor=#46495D;fillColor=#B2C9AB;" vertex="1" parent="1">
          <mxGeometry x="440" y="-120" width="100" height="60" as="geometry" />
        </mxCell>
        <mxCell id="94LR02DZ429kzzAhb7ix-82" style="edgeStyle=orthogonalEdgeStyle;rounded=0;orthogonalLoop=1;jettySize=auto;html=1;exitX=0.5;exitY=1;exitDx=0;exitDy=0;" edge="1" parent="1" source="94LR02DZ429kzzAhb7ix-37" target="94LR02DZ429kzzAhb7ix-81">
          <mxGeometry relative="1" as="geometry" />
        </mxCell>
        <mxCell id="94LR02DZ429kzzAhb7ix-37" value="接入绘制模块" style="rounded=1;whiteSpace=wrap;html=1;absoluteArcSize=1;arcSize=14;strokeWidth=2;sketch=1;fontFamily=Comic Sans MS;fontColor=#46495D;fillColor=#B2C9AB;" vertex="1" parent="1">
          <mxGeometry x="270" y="180" width="170" height="60" as="geometry" />
        </mxCell>
        <mxCell id="94LR02DZ429kzzAhb7ix-40" style="edgeStyle=orthogonalEdgeStyle;rounded=0;orthogonalLoop=1;jettySize=auto;html=1;exitX=0;exitY=0.5;exitDx=0;exitDy=0;exitPerimeter=0;" edge="1" parent="1" source="94LR02DZ429kzzAhb7ix-39" target="94LR02DZ429kzzAhb7ix-37">
          <mxGeometry relative="1" as="geometry" />
        </mxCell>
        <mxCell id="94LR02DZ429kzzAhb7ix-44" value="绘制" style="edgeLabel;html=1;align=center;verticalAlign=middle;resizable=0;points=[];" vertex="1" connectable="0" parent="94LR02DZ429kzzAhb7ix-40">
          <mxGeometry x="0.22" y="3" relative="1" as="geometry">
            <mxPoint as="offset" />
          </mxGeometry>
        </mxCell>
        <mxCell id="94LR02DZ429kzzAhb7ix-42" style="edgeStyle=orthogonalEdgeStyle;rounded=0;orthogonalLoop=1;jettySize=auto;html=1;exitX=1;exitY=0.5;exitDx=0;exitDy=0;exitPerimeter=0;entryX=0.5;entryY=0;entryDx=0;entryDy=0;" edge="1" parent="1" source="94LR02DZ429kzzAhb7ix-39" target="94LR02DZ429kzzAhb7ix-54">
          <mxGeometry relative="1" as="geometry">
            <mxPoint x="625" y="180.00000000000023" as="targetPoint" />
          </mxGeometry>
        </mxCell>
        <mxCell id="94LR02DZ429kzzAhb7ix-91" value="编辑" style="edgeLabel;html=1;align=center;verticalAlign=middle;resizable=0;points=[];" vertex="1" connectable="0" parent="94LR02DZ429kzzAhb7ix-42">
          <mxGeometry x="0.6751" y="3" relative="1" as="geometry">
            <mxPoint as="offset" />
          </mxGeometry>
        </mxCell>
        <mxCell id="94LR02DZ429kzzAhb7ix-39" value="编辑 OR 绘制" style="strokeWidth=2;html=1;shape=mxgraph.flowchart.decision;whiteSpace=wrap;rounded=1;sketch=1;fontFamily=Comic Sans MS;fontColor=#46495D;fillColor=#B2C9AB;" vertex="1" parent="1">
          <mxGeometry x="425" width="130" height="100" as="geometry" />
        </mxCell>
        <mxCell id="94LR02DZ429kzzAhb7ix-88" style="edgeStyle=orthogonalEdgeStyle;rounded=0;orthogonalLoop=1;jettySize=auto;html=1;exitX=0.5;exitY=1;exitDx=0;exitDy=0;" edge="1" parent="1" source="94LR02DZ429kzzAhb7ix-46" target="94LR02DZ429kzzAhb7ix-52">
          <mxGeometry relative="1" as="geometry" />
        </mxCell>
        <mxCell id="94LR02DZ429kzzAhb7ix-46" value="每完成一个点绘制时，加入对应的 SnapRefer" style="rounded=1;whiteSpace=wrap;html=1;absoluteArcSize=1;arcSize=14;strokeWidth=2;sketch=1;fontFamily=Comic Sans MS;fontColor=#46495D;fillColor=#B2C9AB;" vertex="1" parent="1">
          <mxGeometry x="385" y="480" width="170" height="60" as="geometry" />
        </mxCell>
        <mxCell id="94LR02DZ429kzzAhb7ix-51" style="edgeStyle=orthogonalEdgeStyle;rounded=0;orthogonalLoop=1;jettySize=auto;html=1;exitX=0.5;exitY=1;exitDx=0;exitDy=0;entryX=0.5;entryY=0;entryDx=0;entryDy=0;" edge="1" parent="1" source="94LR02DZ429kzzAhb7ix-48" target="94LR02DZ429kzzAhb7ix-50">
          <mxGeometry relative="1" as="geometry" />
        </mxCell>
        <mxCell id="94LR02DZ429kzzAhb7ix-48" value="鼠标移动时，调用 snap 方法获取结果" style="rounded=1;whiteSpace=wrap;html=1;absoluteArcSize=1;arcSize=14;strokeWidth=2;sketch=1;fontFamily=Comic Sans MS;fontColor=#46495D;fillColor=#B2C9AB;" vertex="1" parent="1">
          <mxGeometry x="150" y="480" width="170" height="60" as="geometry" />
        </mxCell>
        <mxCell id="94LR02DZ429kzzAhb7ix-53" style="edgeStyle=orthogonalEdgeStyle;rounded=0;orthogonalLoop=1;jettySize=auto;html=1;exitX=0.5;exitY=1;exitDx=0;exitDy=0;entryX=0.5;entryY=0;entryDx=0;entryDy=0;entryPerimeter=0;" edge="1" parent="1" source="94LR02DZ429kzzAhb7ix-50" target="94LR02DZ429kzzAhb7ix-52">
          <mxGeometry relative="1" as="geometry" />
        </mxCell>
        <mxCell id="94LR02DZ429kzzAhb7ix-50" value="如果有结果，调用 renderer 完成 UI 绘制" style="rounded=1;whiteSpace=wrap;html=1;absoluteArcSize=1;arcSize=14;strokeWidth=2;sketch=1;fontFamily=Comic Sans MS;fontColor=#46495D;fillColor=#B2C9AB;" vertex="1" parent="1">
          <mxGeometry x="150" y="590" width="170" height="60" as="geometry" />
        </mxCell>
        <mxCell id="94LR02DZ429kzzAhb7ix-52" value="完成" style="strokeWidth=2;html=1;shape=mxgraph.flowchart.terminator;whiteSpace=wrap;rounded=1;sketch=1;fontFamily=Comic Sans MS;fontColor=#46495D;fillColor=#B2C9AB;" vertex="1" parent="1">
          <mxGeometry x="305" y="720" width="100" height="60" as="geometry" />
        </mxCell>
        <mxCell id="94LR02DZ429kzzAhb7ix-57" style="edgeStyle=orthogonalEdgeStyle;rounded=0;orthogonalLoop=1;jettySize=auto;html=1;exitX=0.5;exitY=1;exitDx=0;exitDy=0;entryX=0.5;entryY=0;entryDx=0;entryDy=0;" edge="1" parent="1" source="94LR02DZ429kzzAhb7ix-54" target="94LR02DZ429kzzAhb7ix-56">
          <mxGeometry relative="1" as="geometry" />
        </mxCell>
        <mxCell id="94LR02DZ429kzzAhb7ix-54" value="将已有的点和线段数据加入 calculator" style="rounded=1;whiteSpace=wrap;html=1;absoluteArcSize=1;arcSize=14;strokeWidth=2;sketch=1;fontFamily=Comic Sans MS;fontColor=#46495D;fillColor=#B2C9AB;" vertex="1" parent="1">
          <mxGeometry x="810" y="180" width="170" height="60" as="geometry" />
        </mxCell>
        <mxCell id="94LR02DZ429kzzAhb7ix-90" style="edgeStyle=orthogonalEdgeStyle;rounded=0;orthogonalLoop=1;jettySize=auto;html=1;exitX=0.5;exitY=1;exitDx=0;exitDy=0;entryX=0.5;entryY=0;entryDx=0;entryDy=0;entryPerimeter=0;" edge="1" parent="1" source="94LR02DZ429kzzAhb7ix-56" target="94LR02DZ429kzzAhb7ix-89">
          <mxGeometry relative="1" as="geometry" />
        </mxCell>
        <mxCell id="94LR02DZ429kzzAhb7ix-56" value="接入编辑模块" style="rounded=1;whiteSpace=wrap;html=1;absoluteArcSize=1;arcSize=14;strokeWidth=2;sketch=1;fontFamily=Comic Sans MS;fontColor=#46495D;fillColor=#B2C9AB;" vertex="1" parent="1">
          <mxGeometry x="810" y="290" width="170" height="60" as="geometry" />
        </mxCell>
        <mxCell id="94LR02DZ429kzzAhb7ix-84" value="" style="edgeStyle=orthogonalEdgeStyle;rounded=0;orthogonalLoop=1;jettySize=auto;html=1;exitX=1;exitY=0.5;exitDx=0;exitDy=0;exitPerimeter=0;entryX=0.5;entryY=0;entryDx=0;entryDy=0;" edge="1" parent="1" source="94LR02DZ429kzzAhb7ix-81" target="94LR02DZ429kzzAhb7ix-46">
          <mxGeometry relative="1" as="geometry" />
        </mxCell>
        <mxCell id="94LR02DZ429kzzAhb7ix-87" value="点击" style="edgeLabel;html=1;align=center;verticalAlign=middle;resizable=0;points=[];" vertex="1" connectable="0" parent="94LR02DZ429kzzAhb7ix-84">
          <mxGeometry x="0.0326" y="3" relative="1" as="geometry">
            <mxPoint as="offset" />
          </mxGeometry>
        </mxCell>
        <mxCell id="94LR02DZ429kzzAhb7ix-85" style="edgeStyle=orthogonalEdgeStyle;rounded=0;orthogonalLoop=1;jettySize=auto;html=1;exitX=0;exitY=0.5;exitDx=0;exitDy=0;exitPerimeter=0;entryX=0.5;entryY=0;entryDx=0;entryDy=0;" edge="1" parent="1" source="94LR02DZ429kzzAhb7ix-81" target="94LR02DZ429kzzAhb7ix-48">
          <mxGeometry relative="1" as="geometry" />
        </mxCell>
        <mxCell id="94LR02DZ429kzzAhb7ix-86" value="移动" style="edgeLabel;html=1;align=center;verticalAlign=middle;resizable=0;points=[];" vertex="1" connectable="0" parent="94LR02DZ429kzzAhb7ix-85">
          <mxGeometry x="0.045" y="2" relative="1" as="geometry">
            <mxPoint as="offset" />
          </mxGeometry>
        </mxCell>
        <mxCell id="94LR02DZ429kzzAhb7ix-81" value="点击 OR 移动" style="strokeWidth=2;html=1;shape=mxgraph.flowchart.decision;whiteSpace=wrap;rounded=1;sketch=1;fontFamily=Comic Sans MS;fontColor=#46495D;fillColor=#B2C9AB;" vertex="1" parent="1">
          <mxGeometry x="290" y="296" width="130" height="100" as="geometry" />
        </mxCell>
        <mxCell id="94LR02DZ429kzzAhb7ix-93" style="edgeStyle=orthogonalEdgeStyle;rounded=0;orthogonalLoop=1;jettySize=auto;html=1;exitX=0;exitY=0.5;exitDx=0;exitDy=0;exitPerimeter=0;entryX=0.5;entryY=0;entryDx=0;entryDy=0;" edge="1" parent="1" source="94LR02DZ429kzzAhb7ix-89" target="94LR02DZ429kzzAhb7ix-92">
          <mxGeometry relative="1" as="geometry" />
        </mxCell>
        <mxCell id="94LR02DZ429kzzAhb7ix-96" value="拖动时" style="edgeLabel;html=1;align=center;verticalAlign=middle;resizable=0;points=[];" vertex="1" connectable="0" parent="94LR02DZ429kzzAhb7ix-93">
          <mxGeometry x="0.2223" y="2" relative="1" as="geometry">
            <mxPoint y="-1" as="offset" />
          </mxGeometry>
        </mxCell>
        <mxCell id="94LR02DZ429kzzAhb7ix-95" style="edgeStyle=orthogonalEdgeStyle;rounded=0;orthogonalLoop=1;jettySize=auto;html=1;exitX=1;exitY=0.5;exitDx=0;exitDy=0;exitPerimeter=0;entryX=0.5;entryY=0;entryDx=0;entryDy=0;" edge="1" parent="1" source="94LR02DZ429kzzAhb7ix-89" target="94LR02DZ429kzzAhb7ix-94">
          <mxGeometry relative="1" as="geometry" />
        </mxCell>
        <mxCell id="94LR02DZ429kzzAhb7ix-89" value="拖动 OR 松开" style="strokeWidth=2;html=1;shape=mxgraph.flowchart.decision;whiteSpace=wrap;rounded=1;sketch=1;fontFamily=Comic Sans MS;fontColor=#46495D;fillColor=#B2C9AB;" vertex="1" parent="1">
          <mxGeometry x="830" y="403.25" width="130" height="100" as="geometry" />
        </mxCell>
        <mxCell id="94LR02DZ429kzzAhb7ix-99" style="edgeStyle=orthogonalEdgeStyle;rounded=0;orthogonalLoop=1;jettySize=auto;html=1;exitX=0.5;exitY=1;exitDx=0;exitDy=0;entryX=0.5;entryY=0;entryDx=0;entryDy=0;" edge="1" parent="1" source="94LR02DZ429kzzAhb7ix-92" target="94LR02DZ429kzzAhb7ix-98">
          <mxGeometry relative="1" as="geometry" />
        </mxCell>
        <mxCell id="94LR02DZ429kzzAhb7ix-92" value="调用 snap 方法获取结果" style="rounded=1;whiteSpace=wrap;html=1;absoluteArcSize=1;arcSize=14;strokeWidth=2;sketch=1;fontFamily=Comic Sans MS;fontColor=#46495D;fillColor=#B2C9AB;" vertex="1" parent="1">
          <mxGeometry x="680" y="540" width="170" height="60" as="geometry" />
        </mxCell>
        <mxCell id="94LR02DZ429kzzAhb7ix-102" style="edgeStyle=orthogonalEdgeStyle;rounded=0;orthogonalLoop=1;jettySize=auto;html=1;exitX=0.5;exitY=1;exitDx=0;exitDy=0;entryX=0.5;entryY=0;entryDx=0;entryDy=0;entryPerimeter=0;" edge="1" parent="1" source="94LR02DZ429kzzAhb7ix-94" target="94LR02DZ429kzzAhb7ix-100">
          <mxGeometry relative="1" as="geometry" />
        </mxCell>
        <mxCell id="94LR02DZ429kzzAhb7ix-94" value="更新已有的 calculator 中相关数据" style="rounded=1;whiteSpace=wrap;html=1;absoluteArcSize=1;arcSize=14;strokeWidth=2;sketch=1;fontFamily=Comic Sans MS;fontColor=#46495D;fillColor=#B2C9AB;" vertex="1" parent="1">
          <mxGeometry x="950" y="540" width="170" height="60" as="geometry" />
        </mxCell>
        <mxCell id="94LR02DZ429kzzAhb7ix-101" style="edgeStyle=orthogonalEdgeStyle;rounded=0;orthogonalLoop=1;jettySize=auto;html=1;exitX=0.5;exitY=1;exitDx=0;exitDy=0;entryX=0.5;entryY=0;entryDx=0;entryDy=0;entryPerimeter=0;" edge="1" parent="1" source="94LR02DZ429kzzAhb7ix-98" target="94LR02DZ429kzzAhb7ix-100">
          <mxGeometry relative="1" as="geometry" />
        </mxCell>
        <mxCell id="94LR02DZ429kzzAhb7ix-98" value="如果有结果，调用 renderer 完成 UI 绘制" style="rounded=1;whiteSpace=wrap;html=1;absoluteArcSize=1;arcSize=14;strokeWidth=2;sketch=1;fontFamily=Comic Sans MS;fontColor=#46495D;fillColor=#B2C9AB;" vertex="1" parent="1">
          <mxGeometry x="680" y="660" width="170" height="60" as="geometry" />
        </mxCell>
        <mxCell id="94LR02DZ429kzzAhb7ix-100" value="完成" style="strokeWidth=2;html=1;shape=mxgraph.flowchart.terminator;whiteSpace=wrap;rounded=1;sketch=1;fontFamily=Comic Sans MS;fontColor=#46495D;fillColor=#B2C9AB;" vertex="1" parent="1">
          <mxGeometry x="845" y="800" width="100" height="60" as="geometry" />
        </mxCell>
        <mxCell id="94LR02DZ429kzzAhb7ix-106" value="SnapItem" style="swimlane;fontStyle=1;align=center;verticalAlign=top;childLayout=stackLayout;horizontal=1;startSize=26;horizontalStack=0;resizeParent=1;resizeParentMax=0;resizeLast=0;collapsible=1;marginBottom=0;rounded=1;sketch=1;fontFamily=Comic Sans MS;fontColor=#46495D;strokeColor=#788AA3;fillColor=#B2C9AB;" vertex="1" parent="1">
          <mxGeometry x="-450" y="280" width="160" height="216" as="geometry" />
        </mxCell>
        <mxCell id="94LR02DZ429kzzAhb7ix-107" value="+ id: string" style="text;strokeColor=none;fillColor=none;align=left;verticalAlign=top;spacingLeft=4;spacingRight=4;overflow=hidden;rotatable=0;points=[[0,0.5],[1,0.5]];portConstraint=eastwest;rounded=1;sketch=1;fontFamily=Comic Sans MS;fontColor=#46495D;" vertex="1" parent="94LR02DZ429kzzAhb7ix-106">
          <mxGeometry y="26" width="160" height="26" as="geometry" />
        </mxCell>
        <mxCell id="94LR02DZ429kzzAhb7ix-108" value="+ type: point | segment" style="text;strokeColor=none;fillColor=none;align=left;verticalAlign=top;spacingLeft=4;spacingRight=4;overflow=hidden;rotatable=0;points=[[0,0.5],[1,0.5]];portConstraint=eastwest;rounded=1;sketch=1;fontFamily=Comic Sans MS;fontColor=#46495D;" vertex="1" parent="94LR02DZ429kzzAhb7ix-106">
          <mxGeometry y="52" width="160" height="26" as="geometry" />
        </mxCell>
        <mxCell id="94LR02DZ429kzzAhb7ix-117" value="+ coords: number[][]" style="text;strokeColor=none;fillColor=none;align=left;verticalAlign=top;spacingLeft=4;spacingRight=4;overflow=hidden;rotatable=0;points=[[0,0.5],[1,0.5]];portConstraint=eastwest;rounded=1;sketch=1;fontFamily=Comic Sans MS;fontColor=#46495D;" vertex="1" parent="94LR02DZ429kzzAhb7ix-106">
          <mxGeometry y="78" width="160" height="26" as="geometry" />
        </mxCell>
        <mxCell id="94LR02DZ429kzzAhb7ix-118" value="+ ref?: string" style="text;strokeColor=none;fillColor=none;align=left;verticalAlign=top;spacingLeft=4;spacingRight=4;overflow=hidden;rotatable=0;points=[[0,0.5],[1,0.5]];portConstraint=eastwest;rounded=1;sketch=1;fontFamily=Comic Sans MS;fontColor=#46495D;" vertex="1" parent="94LR02DZ429kzzAhb7ix-106">
          <mxGeometry y="104" width="160" height="26" as="geometry" />
        </mxCell>
        <mxCell id="94LR02DZ429kzzAhb7ix-119" value="+ snappingRef: string" style="text;strokeColor=none;fillColor=none;align=left;verticalAlign=top;spacingLeft=4;spacingRight=4;overflow=hidden;rotatable=0;points=[[0,0.5],[1,0.5]];portConstraint=eastwest;rounded=1;sketch=1;fontFamily=Comic Sans MS;fontColor=#46495D;" vertex="1" parent="94LR02DZ429kzzAhb7ix-106">
          <mxGeometry y="130" width="160" height="26" as="geometry" />
        </mxCell>
        <mxCell id="94LR02DZ429kzzAhb7ix-120" value="+ from?: string" style="text;strokeColor=none;fillColor=none;align=left;verticalAlign=top;spacingLeft=4;spacingRight=4;overflow=hidden;rotatable=0;points=[[0,0.5],[1,0.5]];portConstraint=eastwest;rounded=1;sketch=1;fontFamily=Comic Sans MS;fontColor=#46495D;" vertex="1" parent="94LR02DZ429kzzAhb7ix-106">
          <mxGeometry y="156" width="160" height="26" as="geometry" />
        </mxCell>
        <mxCell id="94LR02DZ429kzzAhb7ix-109" value="" style="line;strokeWidth=1;fillColor=none;align=left;verticalAlign=middle;spacingTop=-1;spacingLeft=3;spacingRight=3;rotatable=0;labelPosition=right;points=[];portConstraint=eastwest;rounded=1;sketch=1;fontFamily=Comic Sans MS;fontColor=#46495D;" vertex="1" parent="94LR02DZ429kzzAhb7ix-106">
          <mxGeometry y="182" width="160" height="8" as="geometry" />
        </mxCell>
        <mxCell id="94LR02DZ429kzzAhb7ix-110" value="+ " style="text;strokeColor=none;fillColor=none;align=left;verticalAlign=top;spacingLeft=4;spacingRight=4;overflow=hidden;rotatable=0;points=[[0,0.5],[1,0.5]];portConstraint=eastwest;rounded=1;sketch=1;fontFamily=Comic Sans MS;fontColor=#46495D;" vertex="1" parent="94LR02DZ429kzzAhb7ix-106">
          <mxGeometry y="190" width="160" height="26" as="geometry" />
        </mxCell>
        <mxCell id="94LR02DZ429kzzAhb7ix-111" value="SnappingVector" style="swimlane;fontStyle=1;align=center;verticalAlign=top;childLayout=stackLayout;horizontal=1;startSize=26;horizontalStack=0;resizeParent=1;resizeParentMax=0;resizeLast=0;collapsible=1;marginBottom=0;rounded=1;sketch=1;fontFamily=Comic Sans MS;fontColor=#46495D;strokeColor=#788AA3;fillColor=#B2C9AB;" vertex="1" parent="1">
          <mxGeometry x="-650" y="284" width="160" height="112" as="geometry" />
        </mxCell>
        <mxCell id="94LR02DZ429kzzAhb7ix-112" value="+ refs: string[]" style="text;strokeColor=none;fillColor=none;align=left;verticalAlign=top;spacingLeft=4;spacingRight=4;overflow=hidden;rotatable=0;points=[[0,0.5],[1,0.5]];portConstraint=eastwest;rounded=1;sketch=1;fontFamily=Comic Sans MS;fontColor=#46495D;" vertex="1" parent="94LR02DZ429kzzAhb7ix-111">
          <mxGeometry y="26" width="160" height="26" as="geometry" />
        </mxCell>
        <mxCell id="94LR02DZ429kzzAhb7ix-113" value="+ vector: Vector3" style="text;strokeColor=none;fillColor=none;align=left;verticalAlign=top;spacingLeft=4;spacingRight=4;overflow=hidden;rotatable=0;points=[[0,0.5],[1,0.5]];portConstraint=eastwest;rounded=1;sketch=1;fontFamily=Comic Sans MS;fontColor=#46495D;" vertex="1" parent="94LR02DZ429kzzAhb7ix-111">
          <mxGeometry y="52" width="160" height="26" as="geometry" />
        </mxCell>
        <mxCell id="94LR02DZ429kzzAhb7ix-114" value="" style="line;strokeWidth=1;fillColor=none;align=left;verticalAlign=middle;spacingTop=-1;spacingLeft=3;spacingRight=3;rotatable=0;labelPosition=right;points=[];portConstraint=eastwest;rounded=1;sketch=1;fontFamily=Comic Sans MS;fontColor=#46495D;" vertex="1" parent="94LR02DZ429kzzAhb7ix-111">
          <mxGeometry y="78" width="160" height="8" as="geometry" />
        </mxCell>
        <mxCell id="94LR02DZ429kzzAhb7ix-115" value="+ " style="text;strokeColor=none;fillColor=none;align=left;verticalAlign=top;spacingLeft=4;spacingRight=4;overflow=hidden;rotatable=0;points=[[0,0.5],[1,0.5]];portConstraint=eastwest;rounded=1;sketch=1;fontFamily=Comic Sans MS;fontColor=#46495D;" vertex="1" parent="94LR02DZ429kzzAhb7ix-111">
          <mxGeometry y="86" width="160" height="26" as="geometry" />
        </mxCell>
        <mxCell id="94LR02DZ429kzzAhb7ix-124" value="ISnapPostprocessor" style="swimlane;fontStyle=1;align=center;verticalAlign=top;childLayout=stackLayout;horizontal=1;startSize=26;horizontalStack=0;resizeParent=1;resizeParentMax=0;resizeLast=0;collapsible=1;marginBottom=0;rounded=1;sketch=1;fontFamily=Comic Sans MS;fontColor=#46495D;strokeColor=#788AA3;fillColor=#B2C9AB;" vertex="1" parent="1">
          <mxGeometry x="-650" y="180" width="160" height="52" as="geometry" />
        </mxCell>
        <mxCell id="94LR02DZ429kzzAhb7ix-125" value="+ process(snapList)" style="text;strokeColor=none;fillColor=none;align=left;verticalAlign=top;spacingLeft=4;spacingRight=4;overflow=hidden;rotatable=0;points=[[0,0.5],[1,0.5]];portConstraint=eastwest;rounded=1;sketch=1;fontFamily=Comic Sans MS;fontColor=#46495D;" vertex="1" parent="94LR02DZ429kzzAhb7ix-124">
          <mxGeometry y="26" width="160" height="26" as="geometry" />
        </mxCell>
      </root>
    </mxGraphModel>
  </diagram>
</mxfile>
